# Blender 3.4.1
# www.blender.org
mtllib pellet.mtl
o Cube.013
v -0.922126 0.043582 -1.158883
v -0.922126 0.241731 -1.158883
v -0.906743 0.043582 -1.345145
v -0.906743 0.241731 -1.345145
v -0.751040 0.043582 -1.144753
v -0.751040 0.241731 -1.144753
v -0.735656 0.043582 -1.331015
v -0.735656 0.241731 -1.331015
v 0.042912 0.283376 1.347546
v 0.042912 0.322259 1.347546
v 0.136188 0.283376 -1.354466
v 0.136188 0.322259 -1.354466
v 0.240974 0.283376 1.354384
v 0.240974 0.322259 1.354384
v 0.334251 0.283376 -1.347628
v 0.334251 0.322259 -1.347628
v -0.276217 0.283376 1.351770
v -0.276217 0.322259 1.351770
v -0.276217 0.283376 -1.351852
v -0.276217 0.322259 -1.351852
v -0.078036 0.283376 1.351769
v -0.078036 0.322259 1.351769
v -0.078037 0.283376 -1.351852
v -0.078037 0.322259 -1.351852
v 0.430641 0.283376 1.351770
v 0.430641 0.322259 1.351770
v 0.426630 0.286967 -1.342875
v 0.426630 0.325850 -1.342875
v 0.628821 0.283376 1.351770
v 0.628821 0.322259 1.351770
v 0.628821 0.283376 -1.351852
v 0.628821 0.322259 -1.351852
v 0.747629 0.283376 1.351770
v 0.747629 0.322259 1.351770
v 0.747629 0.283376 -1.351852
v 0.747629 0.322259 -1.351852
v 0.945809 0.283376 1.351770
v 0.945809 0.322259 1.351770
v 0.922204 0.283376 -1.351852
v 0.922204 0.322259 -1.351852
v -0.594931 0.283376 1.351770
v -0.594931 0.322259 1.351770
v -0.594931 0.283376 -1.351852
v -0.594931 0.322259 -1.351852
v -0.396751 0.283376 1.351770
v -0.396751 0.322259 1.351770
v -0.396751 0.283376 -1.351852
v -0.396751 0.322259 -1.351852
v -0.574107 0.283376 0.060731
v -0.574107 0.322259 0.060731
v -0.417574 0.283376 -0.060813
v -0.417574 0.322259 -0.060813
v -0.926550 0.283376 1.351770
v -0.926550 0.322259 1.351770
v -0.926550 0.283376 -1.351852
v -0.926550 0.322259 -1.351852
v -0.728369 0.283376 1.351769
v -0.728369 0.322259 1.351769
v -0.763959 0.283376 -1.351852
v -0.763959 0.322259 -1.351852
v -0.926550 0.003414 1.351770
v -0.926550 0.042297 1.351770
v -0.926550 0.003414 -1.351852
v -0.926550 0.042297 -1.351852
v -0.728369 0.003414 1.351769
v -0.728369 0.042297 1.351769
v -0.728369 0.003414 -1.351852
v -0.728369 0.042297 -1.351852
v 0.747629 0.003414 1.351770
v 0.747629 0.042297 1.351770
v 0.747629 0.003414 -1.351852
v 0.747629 0.042297 -1.351852
v 0.945809 0.003414 1.351770
v 0.945809 0.042297 1.351770
v 0.945809 0.003414 -1.351852
v 0.945809 0.042297 -1.351852
v -0.077229 0.003414 1.351770
v -0.077229 0.042297 1.351770
v -0.077229 0.003414 -1.351852
v -0.077229 0.042297 -1.351852
v 0.120951 0.003414 1.351770
v 0.120951 0.042297 1.351770
v 0.120951 0.003414 -1.351852
v 0.120951 0.042297 -1.351852
v -0.077660 0.043582 0.099033
v -0.077660 0.241731 0.099033
v -0.077660 0.043582 -0.099116
v -0.077660 0.241731 -0.099116
v 0.120489 0.043582 0.099033
v 0.120489 0.241731 0.099033
v 0.120489 0.043582 -0.099116
v 0.120489 0.241731 -0.099116
v -0.077660 0.043582 -1.145874
v -0.077660 0.241731 -1.145874
v -0.077660 0.043582 -1.344023
v -0.077660 0.241731 -1.344023
v 0.120489 0.043582 -1.145874
v 0.112539 0.241731 -1.146319
v 0.120489 0.043582 -1.344023
v 0.112539 0.241731 -1.344468
v -0.023958 0.043582 1.377429
v -0.023958 0.241731 1.377429
v -0.111148 0.043582 1.199493
v -0.111148 0.241731 1.199493
v 0.153977 0.043582 1.290239
v 0.153977 0.241731 1.290239
v 0.066788 0.043582 1.112304
v 0.066788 0.241731 1.112304
v -0.918895 0.043582 1.343941
v -0.918895 0.241731 1.343941
v -0.918895 0.043582 1.145792
v -0.918895 0.241731 1.145792
v -0.738887 0.043582 1.343941
v -0.738887 0.241731 1.343941
v -0.738887 0.043582 1.145792
v -0.738887 0.241731 1.145792
v -0.932305 0.043582 0.084942
v -0.932305 0.241731 0.084942
v -0.903585 0.043582 -0.111115
v -0.903585 0.241731 -0.111115
v -0.754197 0.043582 0.111032
v -0.754197 0.241731 0.111032
v -0.725477 0.043582 -0.085024
v -0.725477 0.241731 -0.085024
v 0.772376 0.043582 0.099033
v 0.787415 0.241731 0.099033
v 0.772376 0.043582 -0.099116
v 0.772376 0.241731 -0.099116
v 0.943637 0.043582 0.099033
v 0.943637 0.241731 0.099033
v 0.943637 0.043582 -0.099116
v 0.943637 0.241731 -0.099116
v 0.773610 0.043582 -1.137651
v 0.773610 0.241731 -1.137651
v 0.754488 0.043582 -1.334875
v 0.754488 0.241731 -1.334875
v 0.952778 0.043582 -1.155022
v 0.952778 0.241731 -1.155022
v 0.933657 0.043582 -1.352246
v 0.933657 0.241731 -1.352246
v 0.763629 0.043582 1.343941
v 0.763629 0.241731 1.343941
v 0.763629 0.043582 1.145792
v 0.763629 0.241731 1.145792
v 0.943637 0.043582 1.343941
v 0.943637 0.241731 1.343941
v 0.943637 0.043582 1.145792
v 0.943637 0.241731 1.145792
v 0.939020 0.242154 0.099049
v 0.939020 0.281037 0.099049
v -0.928849 0.242154 0.099049
v -0.928849 0.281037 0.099049
v 0.939020 0.242154 -0.099131
v 0.939020 0.281037 -0.099131
v -0.928849 0.242154 -0.099131
v -0.928849 0.281037 -0.099131
v 0.939020 0.242154 -1.145859
v 0.939020 0.281037 -1.145859
v -0.928849 0.242154 -1.145859
v -0.928849 0.281037 -1.145859
v 0.939020 0.242154 -1.344039
v 0.939020 0.281037 -1.344039
v -0.928849 0.242154 -1.344039
v -0.928849 0.281037 -1.344039
v 0.939020 0.242154 1.342711
v 0.939020 0.281037 1.342711
v -0.928849 0.242154 1.342711
v -0.928849 0.281037 1.342711
v 0.939020 0.242154 1.144531
v 0.939020 0.281037 1.144531
v -0.928849 0.242154 1.144531
v -0.928849 0.281037 1.144531
vn -0.9966 -0.0000 -0.0823
vn 0.0823 -0.0000 -0.9966
vn 0.9966 -0.0000 0.0823
vn -0.0823 -0.0000 0.9966
vn -0.0000 -1.0000 -0.0000
vn -0.0000 1.0000 -0.0000
vn -0.9994 -0.0000 -0.0345
vn 0.0345 -0.0000 -0.9994
vn 0.9994 -0.0000 0.0345
vn -0.0345 -0.0000 0.9994
vn -1.0000 -0.0000 -0.0000
vn -0.0000 -0.0000 -1.0000
vn 1.0000 -0.0000 -0.0000
vn -0.0000 -0.0000 1.0000
vn -1.0000 -0.0000 0.0015
vn -0.0444 -0.0000 -0.9990
vn -0.0090 -1.0000 -0.0007
vn 0.0090 1.0000 0.0007
vn 1.0000 -0.0000 -0.0087
vn -0.9999 -0.0000 0.0147
vn 0.9999 -0.0000 -0.0147
vn 0.9999 -0.0000 0.0161
vn -0.9999 -0.0000 -0.0161
vn 0.9999 -0.0000 -0.0132
vn -0.0011 -0.0011 -1.0000
vn 0.9992 0.0401 -0.0000
vn 0.0011 0.0011 1.0000
vn -0.8980 -0.0000 0.4400
vn -0.4400 -0.0000 -0.8980
vn 0.8980 -0.0000 -0.4400
vn 0.4400 -0.0000 0.8980
vn -0.9894 -0.0000 -0.1449
vn 0.1449 -0.0000 -0.9894
vn 0.9894 -0.0000 0.1449
vn -0.1449 -0.0000 0.9894
vn -0.9986 0.0379 0.0379
vn -0.9953 -0.0000 0.0965
vn -0.0965 -0.0000 -0.9953
vn 0.9953 -0.0000 -0.0965
vn 0.0965 -0.0000 0.9953
vt 0.375000 0.000000
vt 0.375000 1.000000
vt 0.125000 0.750000
vt 0.625000 0.000000
vt 0.625000 1.000000
vt 0.875000 0.750000
vt 0.375000 0.250000
vt 0.125000 0.500000
vt 0.625000 0.250000
vt 0.875000 0.500000
vt 0.375000 0.750000
vt 0.625000 0.750000
vt 0.375000 0.500000
vt 0.625000 0.500000
vt 0.375000 0.000000
vt 0.375000 1.000000
vt 0.125000 0.750000
vt 0.625000 0.000000
vt 0.625000 1.000000
vt 0.875000 0.750000
vt 0.375000 0.250000
vt 0.125000 0.500000
vt 0.625000 0.250000
vt 0.875000 0.500000
vt 0.375000 0.750000
vt 0.625000 0.750000
vt 0.375000 0.500000
vt 0.625000 0.500000
vt 0.375000 0.000000
vt 0.375000 1.000000
vt 0.125000 0.750000
vt 0.625000 0.000000
vt 0.625000 1.000000
vt 0.875000 0.750000
vt 0.375000 0.250000
vt 0.125000 0.500000
vt 0.625000 0.250000
vt 0.875000 0.500000
vt 0.375000 0.750000
vt 0.625000 0.750000
vt 0.375000 0.500000
vt 0.625000 0.500000
vt 0.375000 0.000000
vt 0.375000 1.000000
vt 0.125000 0.750000
vt 0.625000 0.000000
vt 0.625000 1.000000
vt 0.875000 0.750000
vt 0.375000 0.250000
vt 0.125000 0.500000
vt 0.625000 0.250000
vt 0.875000 0.500000
vt 0.375000 0.750000
vt 0.625000 0.750000
vt 0.375000 0.500000
vt 0.625000 0.500000
vt 0.375000 0.000000
vt 0.375000 1.000000
vt 0.125000 0.750000
vt 0.625000 0.000000
vt 0.625000 1.000000
vt 0.875000 0.750000
vt 0.375000 0.250000
vt 0.125000 0.500000
vt 0.625000 0.250000
vt 0.875000 0.500000
vt 0.375000 0.750000
vt 0.625000 0.750000
vt 0.375000 0.500000
vt 0.625000 0.500000
vt 0.375000 1.000000
vt 0.125000 0.750000
vt 0.375000 0.000000
vt 0.625000 1.000000
vt 0.875000 0.750000
vt 0.625000 0.000000
vt 0.375000 0.250000
vt 0.125000 0.500000
vt 0.625000 0.250000
vt 0.875000 0.500000
vt 0.375000 0.750000
vt 0.625000 0.750000
vt 0.375000 0.500000
vt 0.625000 0.500000
vt 0.125000 0.625000
vt 0.375000 0.125000
vt 0.875000 0.625000
vt 0.625000 0.125000
vt 0.375000 0.625000
vt 0.625000 0.625000
vt 0.375000 0.000000
vt 0.375000 1.000000
vt 0.125000 0.750000
vt 0.625000 0.000000
vt 0.625000 1.000000
vt 0.875000 0.750000
vt 0.375000 0.250000
vt 0.125000 0.500000
vt 0.625000 0.250000
vt 0.875000 0.500000
vt 0.375000 0.750000
vt 0.625000 0.750000
vt 0.375000 0.500000
vt 0.625000 0.500000
vt 0.375000 0.000000
vt 0.375000 1.000000
vt 0.125000 0.750000
vt 0.625000 0.000000
vt 0.625000 1.000000
vt 0.875000 0.750000
vt 0.375000 0.250000
vt 0.125000 0.500000
vt 0.625000 0.250000
vt 0.875000 0.500000
vt 0.375000 0.750000
vt 0.625000 0.750000
vt 0.375000 0.500000
vt 0.625000 0.500000
vt 0.375000 0.000000
vt 0.375000 1.000000
vt 0.125000 0.750000
vt 0.625000 0.000000
vt 0.625000 1.000000
vt 0.875000 0.750000
vt 0.375000 0.250000
vt 0.125000 0.500000
vt 0.625000 0.250000
vt 0.875000 0.500000
vt 0.375000 0.750000
vt 0.625000 0.750000
vt 0.375000 0.500000
vt 0.625000 0.500000
vt 0.375000 0.000000
vt 0.375000 1.000000
vt 0.125000 0.750000
vt 0.625000 0.000000
vt 0.625000 1.000000
vt 0.875000 0.750000
vt 0.375000 0.250000
vt 0.125000 0.500000
vt 0.625000 0.250000
vt 0.875000 0.500000
vt 0.375000 0.750000
vt 0.625000 0.750000
vt 0.375000 0.500000
vt 0.625000 0.500000
vt 0.375000 0.000000
vt 0.375000 1.000000
vt 0.125000 0.750000
vt 0.625000 0.000000
vt 0.625000 1.000000
vt 0.875000 0.750000
vt 0.375000 0.250000
vt 0.125000 0.500000
vt 0.625000 0.250000
vt 0.875000 0.500000
vt 0.375000 0.750000
vt 0.625000 0.750000
vt 0.375000 0.500000
vt 0.625000 0.500000
vt 0.375000 0.000000
vt 0.375000 1.000000
vt 0.125000 0.750000
vt 0.625000 0.000000
vt 0.625000 1.000000
vt 0.875000 0.750000
vt 0.375000 0.250000
vt 0.125000 0.500000
vt 0.625000 0.250000
vt 0.875000 0.500000
vt 0.375000 0.750000
vt 0.625000 0.750000
vt 0.375000 0.500000
vt 0.625000 0.500000
vt 0.375000 0.000000
vt 0.375000 1.000000
vt 0.125000 0.750000
vt 0.625000 0.000000
vt 0.625000 1.000000
vt 0.875000 0.750000
vt 0.375000 0.250000
vt 0.125000 0.500000
vt 0.625000 0.250000
vt 0.875000 0.500000
vt 0.375000 0.750000
vt 0.625000 0.750000
vt 0.375000 0.500000
vt 0.625000 0.500000
vt 0.375000 0.000000
vt 0.375000 1.000000
vt 0.125000 0.750000
vt 0.625000 0.000000
vt 0.625000 1.000000
vt 0.875000 0.750000
vt 0.375000 0.250000
vt 0.125000 0.500000
vt 0.625000 0.250000
vt 0.875000 0.500000
vt 0.375000 0.750000
vt 0.625000 0.750000
vt 0.375000 0.500000
vt 0.625000 0.500000
vt 0.375000 0.000000
vt 0.375000 1.000000
vt 0.125000 0.750000
vt 0.625000 0.000000
vt 0.625000 1.000000
vt 0.875000 0.750000
vt 0.375000 0.250000
vt 0.125000 0.500000
vt 0.625000 0.250000
vt 0.875000 0.500000
vt 0.375000 0.750000
vt 0.625000 0.750000
vt 0.375000 0.500000
vt 0.625000 0.500000
vt 0.375000 0.000000
vt 0.375000 1.000000
vt 0.125000 0.750000
vt 0.625000 0.000000
vt 0.625000 1.000000
vt 0.875000 0.750000
vt 0.375000 0.250000
vt 0.125000 0.500000
vt 0.625000 0.250000
vt 0.875000 0.500000
vt 0.375000 0.750000
vt 0.625000 0.750000
vt 0.375000 0.500000
vt 0.625000 0.500000
vt 0.375000 0.000000
vt 0.375000 1.000000
vt 0.125000 0.750000
vt 0.625000 0.000000
vt 0.625000 1.000000
vt 0.875000 0.750000
vt 0.375000 0.250000
vt 0.125000 0.500000
vt 0.625000 0.250000
vt 0.875000 0.500000
vt 0.375000 0.750000
vt 0.625000 0.750000
vt 0.375000 0.500000
vt 0.625000 0.500000
vt 0.375000 0.000000
vt 0.375000 1.000000
vt 0.125000 0.750000
vt 0.625000 0.000000
vt 0.625000 1.000000
vt 0.875000 0.750000
vt 0.375000 0.250000
vt 0.125000 0.500000
vt 0.625000 0.250000
vt 0.875000 0.500000
vt 0.375000 0.750000
vt 0.625000 0.750000
vt 0.375000 0.500000
vt 0.625000 0.500000
vt 0.375000 0.000000
vt 0.375000 1.000000
vt 0.125000 0.750000
vt 0.625000 0.000000
vt 0.625000 1.000000
vt 0.875000 0.750000
vt 0.375000 0.250000
vt 0.125000 0.500000
vt 0.625000 0.250000
vt 0.875000 0.500000
vt 0.375000 0.750000
vt 0.625000 0.750000
vt 0.375000 0.500000
vt 0.625000 0.500000
vt 0.375000 0.000000
vt 0.375000 1.000000
vt 0.125000 0.750000
vt 0.625000 0.000000
vt 0.625000 1.000000
vt 0.875000 0.750000
vt 0.375000 0.250000
vt 0.125000 0.500000
vt 0.625000 0.250000
vt 0.875000 0.500000
vt 0.375000 0.750000
vt 0.625000 0.750000
vt 0.375000 0.500000
vt 0.625000 0.500000
vt 0.375000 0.000000
vt 0.375000 1.000000
vt 0.125000 0.750000
vt 0.625000 0.000000
vt 0.625000 1.000000
vt 0.875000 0.750000
vt 0.375000 0.250000
vt 0.125000 0.500000
vt 0.625000 0.250000
vt 0.875000 0.500000
vt 0.375000 0.750000
vt 0.625000 0.750000
vt 0.375000 0.500000
vt 0.625000 0.500000
s 0
usemtl Wood
f 1/1/1 2/4/1 4/9/1 3/7/1
f 3/7/2 4/9/2 8/14/2 7/13/2
f 7/13/3 8/14/3 6/12/3 5/11/3
f 5/11/4 6/12/4 2/5/4 1/2/4
f 3/8/5 7/13/5 5/11/5 1/3/5
f 8/14/6 4/10/6 2/6/6 6/12/6
f 9/15/7 10/18/7 12/23/7 11/21/7
f 11/21/8 12/23/8 16/28/8 15/27/8
f 15/27/9 16/28/9 14/26/9 13/25/9
f 13/25/10 14/26/10 10/19/10 9/16/10
f 11/22/5 15/27/5 13/25/5 9/17/5
f 16/28/6 12/24/6 10/20/6 14/26/6
f 17/29/11 18/32/11 20/37/11 19/35/11
f 19/35/12 20/37/12 24/42/12 23/41/12
f 23/41/13 24/42/13 22/40/13 21/39/13
f 21/39/14 22/40/14 18/33/14 17/30/14
f 19/36/5 23/41/5 21/39/5 17/31/5
f 24/42/6 20/38/6 18/34/6 22/40/6
f 25/43/15 26/46/15 28/51/15 27/49/15
f 27/49/16 28/51/16 32/56/16 31/55/16
f 31/55/13 32/56/13 30/54/13 29/53/13
f 29/53/14 30/54/14 26/47/14 25/44/14
f 27/50/17 31/55/17 29/53/17 25/45/17
f 32/56/18 28/52/18 26/48/18 30/54/18
f 33/57/11 34/60/11 36/65/11 35/63/11
f 35/63/12 36/65/12 40/70/12 39/69/12
f 39/69/19 40/70/19 38/68/19 37/67/19
f 37/67/14 38/68/14 34/61/14 33/58/14
f 35/64/5 39/69/5 37/67/5 33/59/5
f 40/70/6 36/66/6 34/62/6 38/68/6
f 49/86/20 50/88/20 44/79/20 43/77/20
f 43/77/12 44/79/12 48/84/12 47/83/12
f 51/89/21 52/90/21 46/82/21 45/81/21
f 45/81/14 46/82/14 42/74/14 41/71/14
f 49/85/5 51/89/5 45/81/5 41/72/5
f 52/90/6 50/87/6 42/75/6 46/82/6
f 48/84/6 44/80/6 50/87/6 52/90/6
f 43/78/5 47/83/5 51/89/5 49/85/5
f 47/83/22 48/84/22 52/90/22 51/89/22
f 41/73/23 42/76/23 50/88/23 49/86/23
f 53/91/11 54/94/11 56/99/11 55/97/11
f 55/97/12 56/99/12 60/104/12 59/103/12
f 59/103/24 60/104/24 58/102/24 57/101/24
f 57/101/14 58/102/14 54/95/14 53/92/14
f 55/98/5 59/103/5 57/101/5 53/93/5
f 60/104/6 56/100/6 54/96/6 58/102/6
f 61/105/11 62/108/11 64/113/11 63/111/11
f 63/111/12 64/113/12 68/118/12 67/117/12
f 67/117/13 68/118/13 66/116/13 65/115/13
f 65/115/14 66/116/14 62/109/14 61/106/14
f 63/112/5 67/117/5 65/115/5 61/107/5
f 68/118/6 64/114/6 62/110/6 66/116/6
f 69/119/11 70/122/11 72/127/11 71/125/11
f 71/125/12 72/127/12 76/132/12 75/131/12
f 75/131/13 76/132/13 74/130/13 73/129/13
f 73/129/14 74/130/14 70/123/14 69/120/14
f 71/126/5 75/131/5 73/129/5 69/121/5
f 76/132/6 72/128/6 70/124/6 74/130/6
f 77/133/11 78/136/11 80/141/11 79/139/11
f 79/139/12 80/141/12 84/146/12 83/145/12
f 83/145/13 84/146/13 82/144/13 81/143/13
f 81/143/14 82/144/14 78/137/14 77/134/14
f 79/140/5 83/145/5 81/143/5 77/135/5
f 84/146/6 80/142/6 78/138/6 82/144/6
f 85/147/11 86/150/11 88/155/11 87/153/11
f 87/153/12 88/155/12 92/160/12 91/159/12
f 91/159/13 92/160/13 90/158/13 89/157/13
f 89/157/14 90/158/14 86/151/14 85/148/14
f 87/154/5 91/159/5 89/157/5 85/149/5
f 92/160/6 88/156/6 86/152/6 90/158/6
f 93/161/11 94/164/11 96/169/11 95/167/11
f 95/167/25 96/169/25 100/174/25 99/173/25
f 99/173/26 100/174/26 98/172/26 97/171/26
f 97/171/27 98/172/27 94/165/27 93/162/27
f 95/168/5 99/173/5 97/171/5 93/163/5
f 100/174/6 96/170/6 94/166/6 98/172/6
f 101/175/28 102/178/28 104/183/28 103/181/28
f 103/181/29 104/183/29 108/188/29 107/187/29
f 107/187/30 108/188/30 106/186/30 105/185/30
f 105/185/31 106/186/31 102/179/31 101/176/31
f 103/182/5 107/187/5 105/185/5 101/177/5
f 108/188/6 104/184/6 102/180/6 106/186/6
f 109/189/11 110/192/11 112/197/11 111/195/11
f 111/195/12 112/197/12 116/202/12 115/201/12
f 115/201/13 116/202/13 114/200/13 113/199/13
f 113/199/14 114/200/14 110/193/14 109/190/14
f 111/196/5 115/201/5 113/199/5 109/191/5
f 116/202/6 112/198/6 110/194/6 114/200/6
f 117/203/32 118/206/32 120/211/32 119/209/32
f 119/209/33 120/211/33 124/216/33 123/215/33
f 123/215/34 124/216/34 122/214/34 121/213/34
f 121/213/35 122/214/35 118/207/35 117/204/35
f 119/210/5 123/215/5 121/213/5 117/205/5
f 124/216/6 120/212/6 118/208/6 122/214/6
f 125/217/36 126/220/36 128/225/36 127/223/36
f 127/223/12 128/225/12 132/230/12 131/229/12
f 131/229/13 132/230/13 130/228/13 129/227/13
f 129/227/14 130/228/14 126/221/14 125/218/14
f 127/224/5 131/229/5 129/227/5 125/219/5
f 132/230/6 128/226/6 126/222/6 130/228/6
f 133/231/37 134/234/37 136/239/37 135/237/37
f 135/237/38 136/239/38 140/244/38 139/243/38
f 139/243/39 140/244/39 138/242/39 137/241/39
f 137/241/40 138/242/40 134/235/40 133/232/40
f 135/238/5 139/243/5 137/241/5 133/233/5
f 140/244/6 136/240/6 134/236/6 138/242/6
f 141/245/11 142/248/11 144/253/11 143/251/11
f 143/251/12 144/253/12 148/258/12 147/257/12
f 147/257/13 148/258/13 146/256/13 145/255/13
f 145/255/14 146/256/14 142/249/14 141/246/14
f 143/252/5 147/257/5 145/255/5 141/247/5
f 148/258/6 144/254/6 142/250/6 146/256/6
f 149/259/14 150/262/14 152/267/14 151/265/14
f 151/265/11 152/267/11 156/272/11 155/271/11
f 155/271/12 156/272/12 154/270/12 153/269/12
f 153/269/13 154/270/13 150/263/13 149/260/13
f 151/266/5 155/271/5 153/269/5 149/261/5
f 156/272/6 152/268/6 150/264/6 154/270/6
f 157/273/14 158/276/14 160/281/14 159/279/14
f 159/279/11 160/281/11 164/286/11 163/285/11
f 163/285/12 164/286/12 162/284/12 161/283/12
f 161/283/13 162/284/13 158/277/13 157/274/13
f 159/280/5 163/285/5 161/283/5 157/275/5
f 164/286/6 160/282/6 158/278/6 162/284/6
f 165/287/14 166/290/14 168/295/14 167/293/14
f 167/293/11 168/295/11 172/300/11 171/299/11
f 171/299/12 172/300/12 170/298/12 169/297/12
f 169/297/13 170/298/13 166/291/13 165/288/13
f 167/294/5 171/299/5 169/297/5 165/289/5
f 172/300/6 168/296/6 166/292/6 170/298/6
