# File produced by Open Asset Import Library (http://www.assimp.sf.net)
# (assimp v3.1.95221606)

mtllib Wooden%20arrow.mtl

# vertex positions
v -12.348667 -137.295715 13.210274
v -12.348667 137.295715 13.210230
v -12.348667 137.295715 -13.210272
v -12.348667 -137.295715 -13.210230
v 12.348668 137.295715 -13.210272
v 12.348668 -137.295715 -13.210230
v 12.348668 137.295715 13.210230
v 12.348668 -137.295715 13.210274
v 16.148773 178.552094 63.726582
v 16.148785 130.433762 141.071548
v 16.148766 83.041656 64.337051
v 16.148771 105.518219 63.569695
v 16.148743 103.868301 -105.465027
v 16.148746 130.433746 -77.167503
v 16.148743 159.143311 -105.465027
v 16.148773 158.542023 63.885082
v 5.239141 178.552094 63.726582
v 5.239139 158.542023 63.885082
v 5.239111 159.143311 -105.465027
v 5.239114 130.433746 -77.167503
v 5.239108 103.868301 -105.465027
v 5.239136 105.518219 63.569695
v 5.239134 83.041656 64.337051
v 5.239151 130.433762 141.071548

# UV coordinates
vt 0.375000 0.000000
vt 0.625000 0.000000
vt 0.625000 0.250000
vt 0.375000 0.250000
vt 0.625000 0.500000
vt 0.375000 0.500000
vt 0.625000 0.750000
vt 0.375000 0.750000
vt 0.625000 1.000000
vt 0.375000 1.000000
vt 0.125000 0.500000
vt 0.125000 0.750000
vt 0.875000 0.500000
vt 0.875000 0.750000
vt 0.000000 0.000000
vt 0.500000 0.000000
vt 1.000000 0.000000
vt 1.000000 0.500000
vt 1.000000 1.000000
vt 0.500000 1.000000
vt 0.000000 1.000000
vt 0.000000 0.500000

# vertex normals
vn -1.000000 0.000000 0.000000
vn 0.000000 -0.000000 -1.000000
vn 1.000000 0.000000 0.000000
vn 0.000000 0.000000 1.000000
vn 0.000000 -1.000000 0.000000
vn 0.000000 1.000000 -0.000000
vn 1.000000 -0.000000 -0.000000
vn -1.000000 0.000000 0.000000
vn -0.000000 -0.007921 -0.999969
vn 0.000000 -0.850812 0.525471
vn -0.000000 -0.999952 0.009760
vn -0.000000 -0.701978 -0.712199
vn -0.000000 0.729068 -0.684442
vn 0.000000 0.849093 0.528243
vn -0.000000 -0.034120 -0.999418
vn 0.000000 0.999994 0.003551

# Mesh
g Cube
usemtl Pillar
f 4/4/1 1/1/1 2/2/1
f 2/2/1 3/3/1 4/4/1
f 6/6/2 4/4/2 3/3/2
f 3/3/2 5/5/2 6/6/2
f 8/8/3 6/6/3 5/5/3
f 5/5/3 7/7/3 8/8/3
f 1/10/4 8/8/4 7/7/4
f 7/7/4 2/9/4 1/10/4
f 1/12/5 4/11/5 6/6/5
f 6/6/5 8/8/5 1/12/5
f 7/7/6 5/5/6 3/13/6
f 3/13/6 2/14/6 7/7/6

# Mesh
g Plane
usemtl Wood
f 16/22/7 9/15/7 10/16/7
f 16/22/7 10/16/7 11/17/7
f 16/22/7 11/17/7 12/18/7
f 16/22/7 12/18/7 13/19/7
f 16/22/7 13/19/7 14/20/7
f 14/20/7 15/21/7 16/22/7
f 24/16/8 17/15/8 18/22/8
f 24/16/8 18/22/8 19/21/8
f 24/16/8 19/21/8 20/20/8
f 24/16/8 20/20/8 21/19/8
f 24/16/8 21/19/8 22/18/8
f 22/18/8 23/17/8 24/16/8
f 17/15/9 9/15/9 16/22/9
f 16/22/9 18/22/9 17/15/9
f 23/17/10 11/17/10 10/16/10
f 10/16/10 24/16/10 23/17/10
f 21/19/11 13/19/11 12/18/11
f 12/18/11 22/18/11 21/19/11
f 19/21/12 15/21/12 14/20/12
f 14/20/12 20/20/12 19/21/12
f 20/20/13 14/20/13 13/19/13
f 13/19/13 21/19/13 20/20/13
f 24/16/14 10/16/14 9/15/14
f 9/15/14 17/15/14 24/16/14
f 22/18/15 12/18/15 11/17/15
f 11/17/15 23/17/15 22/18/15
f 18/22/16 16/22/16 15/21/16
f 15/21/16 19/21/16 18/22/16
